# This file uses centimeters as units for non-parametric coordinates.

mtllib Steak_01.mtl
g default
v 47.260040 22.156667 0.963613
v 31.715332 75.532468 0.963613
v 13.992523 129.213164 0.963613
v -7.875183 157.252271 0.963613
v -24.437836 164.351605 0.963613
v -40.551208 158.688445 0.963613
v -56.360870 139.107775 0.963613
v -72.278900 99.875125 0.963613
v -83.373932 50.276636 0.963613
v -87.197021 0.000000 0.963613
v -83.565308 -49.256559 0.963613
v -73.607971 -85.240248 0.963613
v -55.846130 -104.773947 0.963613
v -32.916260 -111.506461 0.963613
v -4.889771 -109.965975 0.963613
v 26.872070 -100.571514 0.963613
v 56.868561 -87.439344 0.963613
v 80.429688 -74.053811 0.963613
v 88.667664 -52.405071 0.963613
v 69.852905 -23.017468 0.963613
v 47.260040 22.156667 27.594244
v 31.715332 75.532468 27.594244
v 13.992523 129.213164 27.594244
v -7.875183 157.252271 27.594244
v -24.437836 164.351605 27.594244
v -40.551208 158.688445 27.594244
v -56.360870 139.107775 27.594244
v -72.278900 99.875125 27.594244
v -83.373932 50.276636 27.594244
v -87.197021 0.000000 27.594244
v -83.565308 -49.256559 27.594244
v -73.607971 -85.240248 27.594244
v -55.846130 -104.773947 27.594244
v -32.916260 -111.506461 27.594244
v -4.889771 -109.965975 27.594244
v 26.872070 -100.571514 27.594244
v 56.868561 -87.439344 27.594244
v 80.429688 -74.053811 27.594244
v 88.667664 -52.405071 27.594244
v 69.852905 -23.017468 27.594244
v -5.890442 -0.911542 0.963613
v 41.765022 18.539480 27.594244
v 27.665760 66.952059 27.594244
v 11.590931 115.641184 27.594244
v -8.243377 141.073033 27.594244
v -23.265928 147.512232 27.594244
v -37.880978 142.375660 27.594244
v -52.220554 124.615733 27.594244
v -66.658424 89.031182 27.594244
v -76.721771 44.044675 27.594244
v -80.189362 -1.556919 27.594244
v -76.895355 -46.233291 27.594244
v -67.863914 -78.870990 27.594244
v -51.753681 -96.588314 27.594244
v -30.955976 -102.694800 27.594244
v -5.535567 -101.297558 27.594244
v 23.272858 -92.776655 27.594244
v 50.480080 -80.865597 27.594244
v 71.850342 -68.724732 27.594244
v 79.322296 -49.089035 27.594244
v 62.257061 -22.434077 27.594244
v -0.321707 -29.873688 27.594244
v -20.880981 84.029194 27.594244
v -24.397852 88.005967 27.594244
v -27.341574 82.709273 27.594244
v -12.231372 -30.523507 27.594244
v -41.145126 -44.344170 27.594244
v -42.336029 -48.019261 27.594244
v -6.069719 -42.202861 27.594244
v 29.088951 -32.520919 27.594244
v 24.363041 -27.885115 27.594244
vt 0.648603 0.107966
vt 0.626409 0.064408
vt 0.591842 0.029841
vt 0.548284 0.007647
vt 0.500000 -0.000000
vt 0.451716 0.007647
vt 0.408159 0.029841
vt 0.373591 0.064409
vt 0.351397 0.107966
vt 0.343750 0.156250
vt 0.351397 0.204534
vt 0.373591 0.248091
vt 0.408159 0.282659
vt 0.451716 0.304853
vt 0.500000 0.312500
vt 0.548284 0.304853
vt 0.591841 0.282659
vt 0.626409 0.248091
vt 0.648603 0.204534
vt 0.656250 0.156250
vt 0.375000 0.312500
vt 0.387500 0.312500
vt 0.400000 0.312500
vt 0.412500 0.312500
vt 0.425000 0.312500
vt 0.437500 0.312500
vt 0.450000 0.312500
vt 0.462500 0.312500
vt 0.475000 0.312500
vt 0.487500 0.312500
vt 0.500000 0.312500
vt 0.512500 0.312500
vt 0.525000 0.312500
vt 0.537500 0.312500
vt 0.550000 0.312500
vt 0.562500 0.312500
vt 0.575000 0.312500
vt 0.587500 0.312500
vt 0.600000 0.312500
vt 0.612500 0.312500
vt 0.625000 0.312500
vt 0.375000 0.688440
vt 0.387500 0.688440
vt 0.400000 0.688440
vt 0.412500 0.688440
vt 0.425000 0.688440
vt 0.437500 0.688440
vt 0.450000 0.688440
vt 0.462500 0.688440
vt 0.475000 0.688440
vt 0.487500 0.688440
vt 0.500000 0.688440
vt 0.512500 0.688440
vt 0.525000 0.688440
vt 0.537500 0.688440
vt 0.550000 0.688440
vt 0.562500 0.688440
vt 0.575000 0.688440
vt 0.587500 0.688440
vt 0.600000 0.688440
vt 0.612500 0.688440
vt 0.625000 0.688440
vt 0.648603 0.795466
vt 0.626409 0.751908
vt 0.591842 0.717341
vt 0.548284 0.695147
vt 0.500000 0.687500
vt 0.451716 0.695147
vt 0.408159 0.717341
vt 0.373591 0.751909
vt 0.351397 0.795466
vt 0.343750 0.843750
vt 0.351397 0.892034
vt 0.373591 0.935591
vt 0.408159 0.970159
vt 0.451716 0.992353
vt 0.500000 1.000000
vt 0.548284 0.992353
vt 0.591841 0.970159
vt 0.626409 0.935591
vt 0.648603 0.892034
vt 0.656250 0.843750
vt 0.503173 0.158457
vt 0.648603 0.892034
vt 0.626409 0.935591
vt 0.591841 0.970159
vt 0.548284 0.992353
vt 0.500000 1.000000
vt 0.451716 0.992353
vt 0.408159 0.970159
vt 0.373591 0.935591
vt 0.351397 0.892034
vt 0.343750 0.843750
vt 0.351397 0.795466
vt 0.373591 0.751909
vt 0.408159 0.717341
vt 0.451716 0.695147
vt 0.500000 0.687500
vt 0.548284 0.695147
vt 0.591842 0.717341
vt 0.626409 0.751908
vt 0.648603 0.795466
vt 0.656250 0.843750
vt 0.568753 0.875656
vt 0.535031 0.909378
vt 0.487929 0.916838
vt 0.445437 0.895188
vt 0.423787 0.852696
vt 0.431247 0.805594
vt 0.464969 0.771872
vt 0.512071 0.764412
vt 0.554563 0.786062
vt 0.576213 0.828554
vn 0.932602 0.360905 0.000000
vn 0.954955 0.296750 0.000000
vn 0.954955 0.296750 0.000000
vn 0.932602 0.360905 0.000000
vn 0.899949 0.435995 0.000000
vn 0.899949 0.435995 0.000000
vn 0.674791 0.738008 0.000000
vn 0.674791 0.738008 0.000000
vn 0.043910 0.999035 0.000000
vn 0.043910 0.999035 0.000000
vn -0.620271 0.784387 0.000000
vn -0.620271 0.784387 0.000000
vn -0.880102 0.474784 0.000000
vn -0.880102 0.474784 0.000000
vn -0.956741 0.290940 0.000000
vn -0.956741 0.290940 0.000000
vn -0.989028 0.147729 0.000000
vn -0.989028 0.147729 0.000000
vn -0.999998 0.001923 0.000000
vn -0.999998 0.001923 0.000000
vn -0.987530 -0.157433 0.000000
vn -0.987530 -0.157433 0.000000
vn -0.894682 -0.446704 0.000000
vn -0.894682 -0.446704 0.000000
vn -0.542324 -0.840170 0.000000
vn -0.542324 -0.840170 0.000000
vn -0.101367 -0.994849 0.000000
vn -0.101367 -0.994849 0.000000
vn 0.179910 -0.983683 0.000000
vn 0.179910 -0.983683 0.000000
vn 0.342671 -0.939456 0.000000
vn 0.342671 -0.939456 0.000000
vn 0.443715 -0.896168 0.000000
vn 0.443715 -0.896168 0.000000
vn 0.740468 -0.672091 0.000000
vn 0.740468 -0.672091 0.000000
vn 0.979194 0.202928 0.000000
vn 0.979194 0.202928 0.000000
vn 0.874235 0.485503 0.000000
vn 0.874235 0.485503 0.000000
vn 0.000000 0.000000 -1.000000
vn 0.000000 0.000000 -1.000000
vn 0.000000 0.000000 -1.000000
vn 0.000000 0.000000 -1.000000
vn 0.000000 0.000000 -1.000000
vn 0.000000 0.000000 -1.000000
vn 0.000000 0.000000 -1.000000
vn 0.000000 0.000000 -1.000000
vn -0.000000 0.000000 -1.000000
vn -0.000000 0.000000 -1.000000
vn -0.000000 0.000000 -1.000000
vn 0.000000 0.000000 -1.000000
vn 0.000000 0.000000 -1.000000
vn 0.000000 0.000000 -1.000000
vn 0.000000 0.000000 -1.000000
vn 0.000000 0.000000 -1.000000
vn 0.000000 0.000000 -1.000000
vn 0.000000 0.000000 -1.000000
vn -0.000000 0.000000 -1.000000
vn -0.000000 0.000000 -1.000000
vn 0.000000 0.000000 -1.000000
vn 0.000000 0.000000 1.000000
vn 0.000000 0.000000 1.000000
vn -0.000000 0.000000 1.000000
vn 0.000000 0.000000 1.000000
vn 0.000000 0.000000 1.000000
vn 0.000000 0.000000 1.000000
vn 0.000000 0.000000 1.000000
vn -0.000000 0.000000 1.000000
vn -0.000000 0.000000 1.000000
vn -0.000000 0.000000 1.000000
vn -0.000000 0.000000 1.000000
vn 0.000000 0.000000 1.000000
vn 0.000000 0.000000 1.000000
vn 0.000000 0.000000 1.000000
vn 0.000000 0.000000 1.000000
vn 0.000000 0.000000 1.000000
vn 0.000000 0.000000 1.000000
vn 0.000000 0.000000 1.000000
vn 0.000000 0.000000 1.000000
vn 0.000000 0.000000 1.000000
vn 0.000000 0.000000 1.000000
vn 0.000000 0.000000 1.000000
vn 0.000000 0.000000 1.000000
vn 0.000000 0.000000 1.000000
vn 0.000000 0.000000 1.000000
vn 0.000000 0.000000 1.000000
vn 0.000000 0.000000 1.000000
vn 0.000000 0.000000 1.000000
vn 0.000000 0.000000 1.000000
vn 0.000000 0.000000 1.000000
vn 0.000000 0.000000 1.000000
vn -0.000000 0.000000 1.000000
vn -0.000000 0.000000 1.000000
vn -0.000000 0.000000 1.000000
vn -0.000000 0.000000 1.000000
vn -0.000000 0.000000 1.000000
vn -0.000000 0.000000 1.000000
vn -0.000000 0.000000 1.000000
vn -0.000000 0.000000 1.000000
vn -0.000000 0.000000 1.000000
vn -0.000000 0.000000 1.000000
vn -0.000000 0.000000 1.000000
vn -0.000000 0.000000 1.000000
vn 0.000000 0.000000 1.000000
vn 0.000000 0.000000 1.000000
vn 0.000000 0.000000 1.000000
vn 0.000000 0.000000 1.000000
vn 0.000000 0.000000 1.000000
vn 0.000000 0.000000 1.000000
vn 0.000000 0.000000 1.000000
vn 0.000000 0.000000 1.000000
vn -0.000000 0.000000 1.000000
vn -0.000000 0.000000 1.000000
vn -0.000000 0.000000 1.000000
vn -0.000000 0.000000 1.000000
vn 0.000000 0.000000 1.000000
vn 0.000000 0.000000 1.000000
vn 0.000000 0.000000 1.000000
vn 0.000000 0.000000 1.000000
vn -0.000000 0.000000 1.000000
vn -0.000000 0.000000 1.000000
vn -0.000000 0.000000 1.000000
vn -0.000000 0.000000 1.000000
vn -0.000000 0.000000 1.000000
vn -0.000000 0.000000 1.000000
vn -0.000000 0.000000 1.000000
vn -0.000000 0.000000 1.000000
vn 0.000000 0.000000 1.000000
vn 0.000000 0.000000 1.000000
vn 0.000000 0.000000 1.000000
vn 0.000000 0.000000 1.000000
vn 0.000000 0.000000 1.000000
vn 0.000000 0.000000 1.000000
vn 0.000000 0.000000 1.000000
vn 0.000000 0.000000 1.000000
vn -0.000000 0.000000 1.000000
vn -0.000000 0.000000 1.000000
vn -0.000000 0.000000 1.000000
vn -0.000000 0.000000 1.000000
vn 0.000000 0.000000 1.000000
vn 0.000000 0.000000 1.000000
vn 0.000000 0.000000 1.000000
vn 0.000000 0.000000 1.000000
vn -0.000000 0.000000 1.000000
vn -0.000000 0.000000 1.000000
vn 0.000000 0.000000 1.000000
vn -0.000000 0.000000 1.000000
vn -0.000000 0.000000 1.000000
vn -0.000000 0.000000 1.000000
vn -0.000000 0.000000 1.000000
vn 0.000000 0.000000 1.000000
vn 0.000000 0.000000 1.000000
vn 0.000000 0.000000 1.000000
vn 0.000000 0.000000 1.000000
vn 0.000000 0.000000 1.000000
vn 0.000000 0.000000 1.000000
vn 0.000000 0.000000 1.000000
vn -0.000000 0.000000 1.000000
vn -0.000000 0.000000 1.000000
vn -0.000000 0.000000 1.000000
vn 0.000000 0.000000 1.000000
vn 0.000000 0.000000 1.000000
vn 0.000000 0.000000 1.000000
vn 0.000000 0.000000 1.000000
vn 0.000000 0.000000 1.000000
vn 0.000000 0.000000 1.000000
vn 0.000000 0.000000 1.000000
vn -0.000000 0.000000 1.000000
vn -0.000000 0.000000 1.000000
vn -0.000000 0.000000 1.000000
vn 0.000000 0.000000 1.000000
vn 0.000000 0.000000 1.000000
vn 0.000000 0.000000 1.000000
s 1
g pCylinder60
usemtl blinn6SG
f 1/21/1 2/22/2 22/43/3 21/42/4
f 2/22/2 3/23/5 23/44/6 22/43/3
f 3/23/5 4/24/7 24/45/8 23/44/6
f 4/24/7 5/25/9 25/46/10 24/45/8
f 5/25/9 6/26/11 26/47/12 25/46/10
f 6/26/11 7/27/13 27/48/14 26/47/12
f 7/27/13 8/28/15 28/49/16 27/48/14
f 8/28/15 9/29/17 29/50/18 28/49/16
f 9/29/17 10/30/19 30/51/20 29/50/18
f 10/30/19 11/31/21 31/52/22 30/51/20
f 11/31/21 12/32/23 32/53/24 31/52/22
f 12/32/23 13/33/25 33/54/26 32/53/24
f 13/33/25 14/34/27 34/55/28 33/54/26
f 14/34/27 15/35/29 35/56/30 34/55/28
f 15/35/29 16/36/31 36/57/32 35/56/30
f 16/36/31 17/37/33 37/58/34 36/57/32
f 17/37/33 18/38/35 38/59/36 37/58/34
f 18/38/35 19/39/37 39/60/38 38/59/36
f 19/39/37 20/40/39 40/61/40 39/60/38
f 20/40/39 1/41/1 21/62/4 40/61/40
s 2
f 2/2/41 1/1/42 41/83/43
f 3/3/44 2/2/41 41/83/43
f 4/4/45 3/3/44 41/83/43
f 5/5/46 4/4/45 41/83/43
f 6/6/47 5/5/46 41/83/43
f 7/7/48 6/6/47 41/83/43
f 8/8/49 7/7/48 41/83/43
f 9/9/50 8/8/49 41/83/43
f 10/10/51 9/9/50 41/83/43
f 11/11/52 10/10/51 41/83/43
f 12/12/53 11/11/52 41/83/43
f 13/13/54 12/12/53 41/83/43
f 14/14/55 13/13/54 41/83/43
f 15/15/56 14/14/55 41/83/43
f 17/17/57 16/16/58 41/83/43
f 18/18/59 17/17/57 41/83/43
f 19/19/60 18/18/59 41/83/43
f 20/20/61 19/19/60 41/83/43
f 1/1/42 20/20/61 41/83/43
s 3
f 65/107/62 63/105/63 64/106/64
s off
f 21/81/65 22/80/66 43/85/67 42/84/68
f 22/80/69 23/79/70 44/86/71 43/85/72
f 23/79/73 24/78/74 45/87/75 44/86/76
f 24/78/77 25/77/78 46/88/79 45/87/80
f 25/77/81 26/76/82 47/89/83 46/88/84
f 26/76/85 27/75/86 48/90/87 47/89/88
f 27/75/89 28/74/90 49/91/91 48/90/92
f 28/74/93 29/73/94 50/92/95 49/91/96
f 29/73/97 30/72/98 51/93/99 50/92/100
f 30/72/101 31/71/102 52/94/103 51/93/104
f 31/71/105 32/70/106 53/95/107 52/94/108
f 32/70/109 33/69/110 54/96/111 53/95/112
f 33/69/113 34/68/114 55/97/115 54/96/116
f 34/68/117 35/67/118 56/98/119 55/97/120
f 35/67/121 36/66/122 57/99/123 56/98/124
f 36/66/125 37/65/126 58/100/127 57/99/128
f 37/65/129 38/64/130 59/101/131 58/100/132
f 38/64/133 39/63/134 60/102/135 59/101/136
f 39/63/137 40/82/138 61/103/139 60/102/140
f 40/82/141 21/81/142 42/84/143 61/103/144
s 3
usemtl blinn7SG
f 61/103/145 42/84/146 62/104/147 71/113/148
f 42/84/146 43/85/149 62/104/147
f 43/85/149 44/86/150 63/105/63 62/104/147
f 44/86/150 45/87/151 63/105/63
f 45/87/151 46/88/152 64/106/64 63/105/63
f 46/88/152 47/89/153 64/106/64
f 47/89/153 48/90/154 65/107/62 64/106/64
f 48/90/154 49/91/155 65/107/62
f 49/91/155 50/92/156 66/108/157 65/107/62
f 50/92/156 51/93/158 66/108/157
f 51/93/158 52/94/159 67/109/160 66/108/157
f 52/94/159 53/95/161 67/109/160
f 53/95/161 54/96/162 68/110/163 67/109/160
f 54/96/162 55/97/164 68/110/163
f 55/97/164 56/98/165 69/111/166 68/110/163
f 56/98/165 57/99/167 69/111/166
f 57/99/167 58/100/168 70/112/169 69/111/166
f 58/100/168 59/101/170 70/112/169
f 59/101/170 60/102/171 71/113/148 70/112/169
f 60/102/171 61/103/145 71/113/148
s 2
usemtl blinn6SG
f 16/16/58 15/15/56 41/83/43
s 3
f 69/111/166 66/108/157 67/109/160 68/110/163
f 71/113/148 62/104/147 69/111/166 70/112/169
s off
f 69/111/172 62/104/173 66/108/174
s 3
f 66/108/157 62/104/147 63/105/63 65/107/62
